# xmcd
#
# Track frame offsets: 
#        150
#        22704
#        35358
#        50895
#        62569
#        84824
#        97647
#        116771
#        131277
#        148352
#        168831
#        182025
#        206340
#        225316
#        239498
#
# Disc length: 3343 seconds
#
# Revision: 0
# Processed by: cddbd v1.5.2PL0 Copyright (c) Steve Scherf et al.
# Submitted via: ExactAudioCopy v1.0b3
#
DISCID=b70d0d0f
DTITLE=Steve Forbert - Alive On Arrival
DYEAR=1978
DGENRE=Country
TTITLE0=Goin' Down To Laurel
TTITLE1=Steve Forbert's Midsummer Night's Dream
TTITLE2=Thinkin'
TTITLE3=What Kinda Guy?
TTITLE4=It Isn't Gonna Be That Way
TTITLE5=Big City Cat
TTITLE6=Grand Central Station
TTITLE7=Tonight I feel So Far From Home
TTITLE8=Settle Down
TTITLE9=You Cannot Win (If You Do Not Play)
TTITLE10=It's Been A Long Time
TTITLE11=House Of Cards
TTITLE12=Song For The South (Time's Gonna Take Me Back)
TTITLE13=Steve Forbert's Moon River
TTITLE14=Lonesome Cowboy Bill's Song
EXTD=
EXTT0=
EXTT1=
EXTT2=
EXTT3=
EXTT4=
EXTT5=
EXTT6=
EXTT7=
EXTT8=
EXTT9=
EXTT10=
EXTT11=
EXTT12=
EXTT13=
EXTT14=
PLAYORDER=
